# xmcd CD database file
#
# Track frame offsets:
#	182
#	64920
#	91920
#	133690
#	181062
#	261195
#	285505
#	300925
#	309757
#	328627
#
# Disc length: 4667 seconds
#
# Revision: 5
# Processed by: cddbd v1.5.2PL0 Copyright (c) Steve Scherf et al.
# Submitted via: CDex 1.70beta2
#
DISCID=7d12390a
DTITLE=Danny Becher and Fred Vogels - Natural
DYEAR=1987
DGENRE=New Age
TTITLE0=The River
TTITLE1=Chapel
TTITLE2=Calling the One
TTITLE3=Meditation
TTITLE4=Invoking the Harmonic Joy
TTITLE5=Transformation Part 1 - Grief - Solitude
TTITLE6=Transformation Part 2 - Longing for rest
TTITLE7=Transformation Part 3 - Emotions - Tempers
TTITLE8=Transformation Part 4 - Anger - Transformation - New Beginning
TTITLE9=Happiness
EXTD=YEAR: 1987
EXTT0=
EXTT1=
EXTT2=
EXTT3=
EXTT4=
EXTT5=
EXTT6=
EXTT7=
EXTT8=
EXTT9=
PLAYORDER=
